<svg width="64" height="64" viewBox="0 0 64 64" fill="none" xmlns="http://www.w3.org/2000/svg">
  <defs>
    <linearGradient id="bg" x1="7" y1="5" x2="58" y2="61" gradientUnits="userSpaceOnUse">
      <stop stop-color="#0B241B"/>
      <stop offset="0.56" stop-color="#07130F"/>
      <stop offset="1" stop-color="#2F2412"/>
    </linearGradient>
    <linearGradient id="mark" x1="18" y1="19" x2="47" y2="47" gradientUnits="userSpaceOnUse">
      <stop stop-color="#6EF5C8"/>
      <stop offset="0.58" stop-color="#4DD6A7"/>
      <stop offset="1" stop-color="#D99A42"/>
    </linearGradient>
    <filter id="glow" x="-18" y="-18" width="100" height="100" filterUnits="userSpaceOnUse" color-interpolation-filters="sRGB">
      <feGaussianBlur stdDeviation="5.5" result="blur"/>
      <feColorMatrix in="blur" type="matrix" values="0 0 0 0 0.301 0 0 0 0 0.839 0 0 0 0 0.655 0 0 0 0.55 0"/>
      <feBlend in="SourceGraphic"/>
    </filter>
  </defs>
  <rect x="2" y="2" width="60" height="60" rx="16" fill="url(#bg)"/>
  <rect x="2.5" y="2.5" width="59" height="59" rx="15.5" stroke="#4DD6A7" stroke-opacity="0.26"/>
  <circle cx="32" cy="32" r="20" fill="#4DD6A7" fill-opacity="0.1"/>
  <path opacity="0.35" d="M15 32H23.5L27.5 22L36.5 43L41 32H49" stroke="#9EB3A8" stroke-width="3" stroke-linecap="round" stroke-linejoin="round"/>
  <g filter="url(#glow)">
    <path d="M19 35H25.6L29.6 23L35.2 42L39.4 30H46" stroke="url(#mark)" stroke-width="5.4" stroke-linecap="round" stroke-linejoin="round"/>
    <path d="M34.5 16L25.5 34H33L29.5 48L42 28.5H34.3L34.5 16Z" fill="url(#mark)"/>
  </g>
  <circle cx="19" cy="35" r="2.4" fill="#F4FBF7"/>
  <circle cx="46" cy="30" r="2.4" fill="#F4FBF7"/>
</svg>
